<?xml version="1.0" standalone="no"?>
<svg xmlns="http://www.w3.org/2000/svg" viewBox="0 0 1440 320">
	<path fill="#0099ff" fill-opacity="1" d="M0,224L0,96L43.6,96L43.6,160L87.3,160L87.3,256L130.9,256L130.9,96L174.5,96L174.5,96L218.2,96L218.2,224L261.8,224L261.8,288L305.5,288L305.5,96L349.1,96L349.1,32L392.7,32L392.7,160L436.4,160L436.4,160L480,160L480,96L523.6,96L523.6,64L567.3,64L567.3,160L610.9,160L610.9,224L654.5,224L654.5,192L698.2,192L698.2,32L741.8,32L741.8,224L785.5,224L785.5,256L829.1,256L829.1,256L872.7,256L872.7,32L916.4,32L916.4,256L960,256L960,128L1003.6,128L1003.6,32L1047.3,32L1047.3,64L1090.9,64L1090.9,192L1134.5,192L1134.5,64L1178.2,64L1178.2,32L1221.8,32L1221.8,288L1265.5,288L1265.5,160L1309.1,160L1309.1,32L1352.7,32L1352.7,320L1396.4,320L1396.4,160L1440,160L1440,320L1396.4,320L1396.4,320L1352.7,320L1352.7,320L1309.1,320L1309.1,320L1265.5,320L1265.5,320L1221.8,320L1221.8,320L1178.2,320L1178.2,320L1134.5,320L1134.5,320L1090.9,320L1090.9,320L1047.3,320L1047.3,320L1003.6,320L1003.6,320L960,320L960,320L916.4,320L916.4,320L872.7,320L872.7,320L829.1,320L829.1,320L785.5,320L785.5,320L741.8,320L741.8,320L698.2,320L698.2,320L654.5,320L654.5,320L610.9,320L610.9,320L567.3,320L567.3,320L523.6,320L523.6,320L480,320L480,320L436.4,320L436.4,320L392.7,320L392.7,320L349.1,320L349.1,320L305.5,320L305.5,320L261.8,320L261.8,320L218.2,320L218.2,320L174.5,320L174.5,320L130.9,320L130.9,320L87.3,320L87.3,320L43.6,320L43.6,320L0,320L0,320Z"></path>
</svg>