<?xml version="1.0" standalone="no"?>
<svg xmlns="http://www.w3.org/2000/svg" viewBox="0 0 1440 320">
	<path fill="#0099ff" fill-opacity="1" d="M0,128L0,224L36.9,224L36.9,224L73.8,224L73.8,64L110.8,64L110.8,288L147.7,288L147.7,64L184.6,64L184.6,320L221.5,320L221.5,0L258.5,0L258.5,320L295.4,320L295.4,96L332.3,96L332.3,32L369.2,32L369.2,192L406.2,192L406.2,288L443.1,288L443.1,288L480,288L480,224L516.9,224L516.9,288L553.8,288L553.8,160L590.8,160L590.8,32L627.7,32L627.7,320L664.6,320L664.6,64L701.5,64L701.5,256L738.5,256L738.5,288L775.4,288L775.4,288L812.3,288L812.3,32L849.2,32L849.2,224L886.2,224L886.2,160L923.1,160L923.1,192L960,192L960,320L996.9,320L996.9,128L1033.8,128L1033.8,288L1070.8,288L1070.8,128L1107.7,128L1107.7,256L1144.6,256L1144.6,256L1181.5,256L1181.5,192L1218.5,192L1218.5,224L1255.4,224L1255.4,256L1292.3,256L1292.3,256L1329.2,256L1329.2,224L1366.2,224L1366.2,32L1403.1,32L1403.1,160L1440,160L1440,320L1403.1,320L1403.1,320L1366.2,320L1366.2,320L1329.2,320L1329.2,320L1292.3,320L1292.3,320L1255.4,320L1255.4,320L1218.5,320L1218.5,320L1181.5,320L1181.5,320L1144.6,320L1144.6,320L1107.7,320L1107.7,320L1070.8,320L1070.8,320L1033.8,320L1033.8,320L996.9,320L996.9,320L960,320L960,320L923.1,320L923.1,320L886.2,320L886.2,320L849.2,320L849.2,320L812.3,320L812.3,320L775.4,320L775.4,320L738.5,320L738.5,320L701.5,320L701.5,320L664.6,320L664.6,320L627.7,320L627.7,320L590.8,320L590.8,320L553.8,320L553.8,320L516.9,320L516.9,320L480,320L480,320L443.1,320L443.1,320L406.2,320L406.2,320L369.2,320L369.2,320L332.3,320L332.3,320L295.4,320L295.4,320L258.5,320L258.5,320L221.5,320L221.5,320L184.6,320L184.6,320L147.7,320L147.7,320L110.8,320L110.8,320L73.8,320L73.8,320L36.9,320L36.9,320L0,320L0,320Z"></path>
</svg>