<?xml version="1.0" standalone="no"?>
<svg xmlns="http://www.w3.org/2000/svg" viewBox="0 0 1440 320">
	<path fill="#0099ff" fill-opacity="1" d="M0,256L30,256C60,256,120,256,180,213.3C240,171,300,85,360,48C420,11,480,21,540,69.3C600,117,660,203,720,250.7C780,299,840,309,900,293.3C960,277,1020,235,1080,197.3C1140,160,1200,128,1260,128C1320,128,1380,160,1410,176L1440,192L1440,320L1410,320C1380,320,1320,320,1260,320C1200,320,1140,320,1080,320C1020,320,960,320,900,320C840,320,780,320,720,320C660,320,600,320,540,320C480,320,420,320,360,320C300,320,240,320,180,320C120,320,60,320,30,320L0,320Z"></path>
</svg>