<?xml version="1.0" standalone="no"?>
<svg xmlns="http://www.w3.org/2000/svg" viewBox="0 0 1440 320">
	<path fill="#0099ff" fill-opacity="1" d="M0,32L30,53.3C60,75,120,117,180,133.3C240,149,300,139,360,138.7C420,139,480,149,540,176C600,203,660,245,720,266.7C780,288,840,288,900,256C960,224,1020,160,1080,133.3C1140,107,1200,117,1260,122.7C1320,128,1380,128,1410,128L1440,128L1440,320L1410,320C1380,320,1320,320,1260,320C1200,320,1140,320,1080,320C1020,320,960,320,900,320C840,320,780,320,720,320C660,320,600,320,540,320C480,320,420,320,360,320C300,320,240,320,180,320C120,320,60,320,30,320L0,320Z"></path>
</svg>